<svg width="401" height="400" viewBox="0 0 401 400" fill="none" xmlns="http://www.w3.org/2000/svg">
<g filter="url(#filter0_d_14_43)">
<path d="M96.2666 319.948C60.6088 317.019 5 327.697 5 327.697L5 1L396 1L396 375.825C396 375.825 373.656 383.572 358.596 386.429C326.342 392.549 306.08 392.498 273.813 386.429C230.419 378.269 213.931 356.964 175.564 339.118C147.909 326.254 128.752 322.617 96.2666 319.948Z" fill="#616161"/>
<path d="M96.2666 319.948C60.6088 317.019 5 327.697 5 327.697L5 1L396 1L396 375.825C396 375.825 373.656 383.572 358.596 386.429C326.342 392.549 306.08 392.498 273.813 386.429C230.419 378.269 213.931 356.964 175.564 339.118C147.909 326.254 128.752 322.617 96.2666 319.948Z" stroke="black"/>
</g>
<defs>
<filter id="filter0_d_14_43" x="0.5" y="0.5" width="400" height="399" filterUnits="userSpaceOnUse" color-interpolation-filters="sRGB">
<feFlood flood-opacity="0" result="BackgroundImageFix"/>
<feColorMatrix in="SourceAlpha" type="matrix" values="0 0 0 0 0 0 0 0 0 0 0 0 0 0 0 0 0 0 127 0" result="hardAlpha"/>
<feOffset dy="4"/>
<feGaussianBlur stdDeviation="2"/>
<feComposite in2="hardAlpha" operator="out"/>
<feColorMatrix type="matrix" values="0 0 0 0 0 0 0 0 0 0 0 0 0 0 0 0 0 0 0.25 0"/>
<feBlend mode="normal" in2="BackgroundImageFix" result="effect1_dropShadow_14_43"/>
<feBlend mode="normal" in="SourceGraphic" in2="effect1_dropShadow_14_43" result="shape"/>
</filter>
</defs>
</svg>
